<svg width="25" height="34" viewBox="0 0 25 34" fill="none" xmlns="http://www.w3.org/2000/svg">
<g id="_&#195;&#131;&#194;&#171;&#195;&#131;&#194;&#174;&#195;&#131;&#194;&#169;_1">
<path id="Vector" d="M16.5622 10.1214V5.33618H8.7775V10.1214C6.25281 11.0375 4.13179 12.8141 2.78718 15.139C1.44256 17.4639 0.960396 20.1883 1.42545 22.8335C1.8905 25.4787 3.27301 27.8753 5.32998 29.6022C7.38694 31.3291 9.98675 32.2757 12.6725 32.2757C15.3582 32.2757 17.9581 31.3291 20.015 29.6022C22.072 27.8753 23.4545 25.4787 23.9195 22.8335C24.3846 20.1883 23.9024 17.4639 22.5578 15.139C21.2132 12.8141 19.0922 11.0375 16.5675 10.1214H16.5622Z" stroke="white" stroke-width="1.5" stroke-linecap="round" stroke-linejoin="round"/>
<path id="Vector_2" d="M23.6588 23.1125L21.8309 21.6349C21.3131 21.2164 20.6676 20.9882 20.0018 20.9882C19.3361 20.9882 18.6906 21.2164 18.1728 21.6349C17.6547 22.0529 17.009 22.2808 16.3433 22.2808C15.6775 22.2808 15.0319 22.0529 14.5137 21.6349C13.9959 21.2166 13.3503 20.9885 12.6847 20.9885C12.019 20.9885 11.3735 21.2166 10.8556 21.6349C10.3379 22.0529 9.69257 22.2809 9.02715 22.2809C8.36174 22.2809 7.71641 22.0529 7.19866 21.6349C6.68092 21.2169 6.03559 20.9889 5.37017 20.9889C4.70475 20.9889 4.0594 21.2169 3.54165 21.6349L1.70947 23.1125" stroke="white" stroke-width="1.5" stroke-linecap="round" stroke-linejoin="round"/>
<path id="Vector_3" d="M17.5804 1.72241H7.75244V5.33614H17.5804V1.72241Z" stroke="white" stroke-width="1.5" stroke-linecap="round" stroke-linejoin="round"/>
</g>
</svg>
