<svg width="16" height="16" viewBox="0 0 16 16" fill="none" xmlns="http://www.w3.org/2000/svg">
<g id="vuesax/bold/hospital">
<g id="hospital">
<path id="Vector" d="M14.6668 14.1666H1.3335C1.06016 14.1666 0.833496 14.3933 0.833496 14.6666C0.833496 14.94 1.06016 15.1666 1.3335 15.1666H14.6668C14.9402 15.1666 15.1668 14.94 15.1668 14.6666C15.1668 14.3933 14.9402 14.1666 14.6668 14.1666Z" fill="#9CA3AF"/>
<path id="Vector_2" d="M11.3333 1.33337H4.66667C2.66667 1.33337 2 2.52671 2 4.00004V14.6667H6V10.6267C6 10.28 6.28 10 6.62667 10H9.38C9.72 10 10.0067 10.28 10.0067 10.6267V14.6667H14.0067V4.00004C14 2.52671 13.3333 1.33337 11.3333 1.33337ZM9.66667 6.16671H8.5V7.33337C8.5 7.60671 8.27333 7.83337 8 7.83337C7.72667 7.83337 7.5 7.60671 7.5 7.33337V6.16671H6.33333C6.06 6.16671 5.83333 5.94004 5.83333 5.66671C5.83333 5.39337 6.06 5.16671 6.33333 5.16671H7.5V4.00004C7.5 3.72671 7.72667 3.50004 8 3.50004C8.27333 3.50004 8.5 3.72671 8.5 4.00004V5.16671H9.66667C9.94 5.16671 10.1667 5.39337 10.1667 5.66671C10.1667 5.94004 9.94 6.16671 9.66667 6.16671Z" fill="#9CA3AF"/>
</g>
</g>
</svg>
