<svg width="16" height="16" viewBox="0 0 16 16" fill="none" xmlns="http://www.w3.org/2000/svg">
<g id="vuesax/bold/routing">
<path id="Vector" d="M5.92018 3.06661C5.38685 0.759941 1.91351 0.753274 1.38018 3.06661C1.06685 4.41994 1.92685 5.56661 2.67351 6.27994C3.22018 6.79327 4.08018 6.79327 4.62685 6.27994C5.37351 5.56661 6.22685 4.41994 5.92018 3.06661ZM3.67351 4.13327C3.30685 4.13327 3.00685 3.83327 3.00685 3.46661C3.00685 3.09994 3.30018 2.79994 3.66685 2.79994H3.67351C4.04685 2.79994 4.34018 3.09994 4.34018 3.46661C4.34018 3.83327 4.04685 4.13327 3.67351 4.13327Z" fill="#9CA3AF"/>
<path id="Vector_2" d="M14.6067 11.0666C14.0733 8.75994 10.5867 8.75327 10.0467 11.0666C9.73333 12.4199 10.5933 13.5666 11.3467 14.2799C11.8933 14.7933 12.76 14.7933 13.3067 14.2799C14.06 13.5666 14.92 12.4199 14.6067 11.0666ZM12.3533 12.1333C11.9867 12.1333 11.6867 11.8333 11.6867 11.4666C11.6867 11.0999 11.98 10.7999 12.3467 10.7999H12.3533C12.72 10.7999 13.02 11.0999 13.02 11.4666C13.02 11.8333 12.72 12.1333 12.3533 12.1333Z" fill="#9CA3AF"/>
<path id="Vector_3" d="M8.00012 13.1667H6.21346C5.44012 13.1667 4.76679 12.7 4.50012 11.98C4.22679 11.26 4.42679 10.4667 5.00679 9.95337L10.3335 5.29337C10.6535 5.01337 10.6601 4.63337 10.5668 4.37337C10.4668 4.11337 10.2135 3.83337 9.78679 3.83337H8.00012C7.72679 3.83337 7.50012 3.60671 7.50012 3.33337C7.50012 3.06004 7.72679 2.83337 8.00012 2.83337H9.78679C10.5601 2.83337 11.2335 3.30004 11.5001 4.02004C11.7735 4.74004 11.5735 5.53337 10.9935 6.04671L5.66679 10.7067C5.34679 10.9867 5.34012 11.3667 5.43346 11.6267C5.53346 11.8867 5.78679 12.1667 6.21346 12.1667H8.00012C8.27346 12.1667 8.50012 12.3934 8.50012 12.6667C8.50012 12.94 8.27346 13.1667 8.00012 13.1667Z" fill="#9CA3AF"/>
</g>
</svg>
