<svg width="34" height="34" viewBox="0 0 34 34" fill="none" xmlns="http://www.w3.org/2000/svg">
<g id="vuesax/bulk/message-edit">
<g id="message-edit">
<path id="Vector" d="M22.6668 2.83337H11.3335C5.66683 2.83337 2.8335 5.66671 2.8335 11.3334V29.75C2.8335 30.5292 3.471 31.1667 4.25016 31.1667H22.6668C28.3335 31.1667 31.1668 28.3334 31.1668 22.6667V11.3334C31.1668 5.66671 28.3335 2.83337 22.6668 2.83337Z" fill="#1C2A3A"/>
<g id="Group">
<path id="Vector_2" d="M23.4455 10.5684C21.6605 8.78336 19.9322 8.74086 18.1047 10.5684L16.9855 11.6875C16.8864 11.7867 16.8581 11.9284 16.8864 12.0559C17.5806 14.4925 19.5214 16.4334 21.958 17.1275C21.9864 17.1417 22.0289 17.1417 22.0714 17.1417C22.1705 17.1417 22.2697 17.0992 22.3405 17.0284L23.4455 15.9234C24.3522 15.0167 24.7914 14.1525 24.7914 13.2742C24.7914 12.3534 24.3522 11.475 23.4455 10.5684Z" fill="white"/>
<path id="Vector_3" d="M20.3148 17.9492C20.0456 17.8217 19.7906 17.6942 19.5498 17.5384C19.3514 17.425 19.1532 17.2975 18.969 17.1559C18.8132 17.0567 18.6289 16.915 18.4448 16.7592C18.4164 16.745 18.3598 16.7025 18.289 16.6175C17.9915 16.3625 17.6514 16.0225 17.3398 15.6684C17.3114 15.6542 17.269 15.5834 17.2123 15.4984C17.1131 15.385 16.9715 15.2009 16.8298 15.0025C16.7165 14.8609 16.589 14.6625 16.4756 14.4642C16.334 14.2234 16.1923 13.9684 16.079 13.7134C15.9515 13.43 15.8523 13.175 15.7531 12.92L10.4123 18.2609C10.0581 18.615 9.73231 19.2667 9.66147 19.7484L9.25063 22.695C9.15146 23.3184 9.33561 23.8992 9.71811 24.2959C10.0439 24.6217 10.4973 24.7917 10.9931 24.7917C11.1065 24.7917 11.2056 24.7775 11.3189 24.7634L14.2656 24.3525C14.7473 24.2817 15.399 23.9559 15.7531 23.6017L21.094 18.2609C20.839 18.1617 20.584 18.0625 20.3148 17.9492Z" fill="white"/>
</g>
</g>
</g>
</svg>
