<svg width="24" height="24" viewBox="0 0 24 24" fill="none" xmlns="http://www.w3.org/2000/svg">
<g id="vuesax/bold/notification-bing">
<g id="notification-bing">
<path id="Vector" d="M20.1902 14.06L19.0602 12.18C18.8102 11.77 18.5902 10.98 18.5902 10.5V8.63005C18.5902 5.00005 15.6402 2.05005 12.0202 2.05005C8.3902 2.06005 5.4402 5.00005 5.4402 8.63005V10.49C5.4402 10.97 5.2202 11.76 4.9802 12.17L3.8502 14.05C3.4202 14.78 3.3202 15.61 3.5902 16.33C3.8602 17.06 4.4702 17.64 5.2702 17.9C6.3502 18.26 7.4402 18.52 8.5502 18.71C8.6602 18.73 8.7702 18.74 8.8802 18.76C9.0202 18.7801 9.1702 18.8 9.3202 18.82C9.5802 18.8601 9.8402 18.89 10.1102 18.91C10.7402 18.97 11.3802 19 12.0202 19C12.6502 19 13.2802 18.97 13.9002 18.91C14.1302 18.89 14.3602 18.8701 14.5802 18.84C14.7602 18.82 14.9402 18.8001 15.1202 18.7701C15.2302 18.76 15.3402 18.74 15.4502 18.72C16.5702 18.54 17.6802 18.26 18.7602 17.9C19.5302 17.64 20.1202 17.06 20.4002 16.32C20.6802 15.57 20.6002 14.75 20.1902 14.06ZM12.7502 10C12.7502 10.42 12.4102 10.76 11.9902 10.76C11.5702 10.76 11.2302 10.42 11.2302 10V6.90005C11.2302 6.48005 11.5702 6.14005 11.9902 6.14005C12.4102 6.14005 12.7502 6.48005 12.7502 6.90005V10Z" fill="#4B5563"/>
<path id="Vector_2" d="M14.8302 20.01C14.4102 21.17 13.3002 22 12.0002 22C11.2102 22 10.4302 21.68 9.88018 21.11C9.56018 20.81 9.32018 20.41 9.18018 20C9.31018 20.02 9.44018 20.03 9.58018 20.05C9.81018 20.08 10.0502 20.11 10.2902 20.13C10.8602 20.18 11.4402 20.21 12.0202 20.21C12.5902 20.21 13.1602 20.18 13.7202 20.13C13.9302 20.11 14.1402 20.1 14.3402 20.07C14.5002 20.05 14.6602 20.03 14.8302 20.01Z" fill="#4B5563"/>
</g>
</g>
</svg>
