<svg width="28" height="36" viewBox="0 0 28 36" fill="none" xmlns="http://www.w3.org/2000/svg">
<g id="_&#195;&#131;&#194;&#171;&#195;&#131;&#194;&#174;&#195;&#131;&#194;&#169;_1" clip-path="url(#clip0_2_3320)">
<path id="Vector" d="M20.646 1.28381C18.9107 1.28381 16.714 2.47713 13.9992 2.47713C11.2843 2.47713 9.0876 1.28381 7.35337 1.28381C4.35977 1.28381 -0.285463 3.64256 0.782943 9.76912C1.58089 14.338 5.26301 16.7494 5.26301 20.3717C5.26301 24.1529 3.98196 24.3459 3.84157 28.9096C3.69498 33.6405 5.80808 34.7141 6.55235 34.7141C7.29662 34.7141 9.30233 35.0186 10.2386 29.4247C11.308 23.0246 13.9992 23.3074 13.9992 23.3074C13.9992 23.3074 16.6914 23.0277 17.7608 29.4247C18.6971 35.0186 20.7038 34.7141 21.4471 34.7141C22.1903 34.7141 24.3044 33.6405 24.1578 28.9096C24.0164 24.3459 22.7364 24.1529 22.7364 20.3717C22.7364 16.7494 26.4185 14.338 27.2164 9.76912C28.2859 3.64256 23.6375 1.28381 20.646 1.28381Z" stroke="white" stroke-width="1.5" stroke-linecap="round" stroke-linejoin="round"/>
<path id="Vector_2" d="M8.03886 14.6074C7.81073 14.2255 7.57951 13.8559 7.3524 13.4946C6.45639 12.067 5.6832 10.8345 5.42616 9.36553C5.20319 8.08861 5.35909 7.12138 5.88968 6.48962" stroke="white" stroke-width="1.5" stroke-linecap="round" stroke-linejoin="round"/>
</g>
<defs>
<clipPath id="clip0_2_3320">
<rect width="27.858" height="34.5451" fill="white" transform="translate(0.0708008 0.727417)"/>
</clipPath>
</defs>
</svg>
