<svg width="18" height="21" viewBox="0 0 18 21" fill="none" xmlns="http://www.w3.org/2000/svg">
<path id="Vector" d="M17.5 6.95C16.45 2.33 12.42 0.25 8.87998 0.25C8.87998 0.25 8.87998 0.25 8.86998 0.25C5.33998 0.25 1.29998 2.32 0.249978 6.94C-0.920022 12.1 2.23998 16.47 5.09998 19.22C6.15998 20.24 7.51998 20.75 8.87998 20.75C10.24 20.75 11.6 20.24 12.65 19.22C15.51 16.47 18.67 12.11 17.5 6.95ZM8.87998 11.96C7.13998 11.96 5.72998 10.55 5.72998 8.81C5.72998 7.07 7.13998 5.66 8.87998 5.66C10.62 5.66 12.03 7.07 12.03 8.81C12.03 10.55 10.62 11.96 8.87998 11.96Z" fill="#1C2A3A"/>
</svg>
