<svg width="36" height="36" viewBox="0 0 36 36" fill="none" xmlns="http://www.w3.org/2000/svg">
<g id="_&#195;&#131;&#194;&#171;&#195;&#131;&#194;&#174;&#195;&#131;&#194;&#169;_1" clip-path="url(#clip0_2_3365)">
<path id="Vector" d="M7.20854 6.48437L7.40453 5.31214C7.67944 4.17727 8.32762 3.16766 9.24508 2.44532C10.1625 1.72298 11.2961 1.3298 12.4638 1.32886C13.3949 1.32886 14.2879 1.69875 14.9464 2.3572C15.6048 3.01564 15.9748 3.90868 15.9748 4.83986V30.5495C15.9748 32.7104 13.8025 34.6721 11.6426 34.6721C8.16335 34.6721 5.63088 32.3638 5.63088 28.7192C3.79497 27.3125 2.55932 24.9443 3.1392 22.7052L3.4031 21.6927L3.27398 21.5919C0.265838 19.2429 0.39606 15.494 3.53218 13.324" stroke="white" stroke-width="1.5" stroke-linecap="round" stroke-linejoin="round"/>
<path id="Vector_2" d="M11.3516 8.49713C9.67988 6.20931 7.08403 5.76647 4.44851 7.59106C3.11773 8.66475 2.15273 10.7759 3.53222 13.3219C3.53222 13.3219 6.6174 11.7726 8.71041 15.1839" stroke="white" stroke-width="1.5" stroke-linecap="round" stroke-linejoin="round"/>
<path id="Vector_3" d="M5.62891 28.7194C5.62891 28.7194 6.02983 26.7532 8.95642 26.1733" stroke="white" stroke-width="1.5" stroke-linecap="round" stroke-linejoin="round"/>
<path id="Vector_4" d="M10.4354 27.7204C10.7616 27.8337 7.8871 26.6694 9.21108 24.1754" stroke="white" stroke-width="1.5" stroke-linecap="round" stroke-linejoin="round"/>
<path id="Vector_5" d="M15.9724 19.1524C15.9724 19.1524 13.7718 18.0051 11.8623 19.8784" stroke="white" stroke-width="1.5" stroke-linecap="round" stroke-linejoin="round"/>
<path id="Vector_6" d="M3.40332 21.6928C3.40332 21.6928 4.26519 19.6927 7.31637 20.4991" stroke="white" stroke-width="1.5" stroke-linecap="round" stroke-linejoin="round"/>
<path id="Vector_7" d="M28.8421 6.35524L28.5951 5.31214C28.3202 4.17727 27.672 3.16766 26.7546 2.44532C25.8371 1.72298 24.7036 1.3298 23.5359 1.32886C22.6047 1.32886 21.7117 1.69875 21.0532 2.3572C20.3948 3.01564 20.0249 3.90869 20.0249 4.83986V30.5495C20.0248 31.0632 20.1258 31.572 20.3224 32.0467C20.5189 32.5214 20.8071 32.9527 21.1704 33.3159C21.5337 33.6792 21.965 33.9674 22.4397 34.1639C22.9143 34.3605 23.4231 34.4616 23.9368 34.4614C28.3256 34.4614 29.7878 32.4918 30.7901 29.5619C33.0462 28.2888 33.4415 25.787 32.8582 23.5478L32.5955 22.5365L32.7245 22.4345C33.424 21.8882 33.9853 21.1852 34.3631 20.3821C34.7409 19.579 34.9246 18.6983 34.8995 17.8112C34.8744 16.924 34.641 16.0552 34.2184 15.2748C33.7958 14.4943 33.1956 13.8242 32.4663 13.3184" stroke="white" stroke-width="1.5" stroke-linecap="round" stroke-linejoin="round"/>
<path id="Vector_8" d="M25.084 8.78808C26.7647 5.84337 29.3799 5.94305 31.551 7.58756C33.1842 8.86058 33.4764 11.8381 32.4684 13.3184C32.4684 13.3184 27.9562 12.4123 25.571 14.7681" stroke="white" stroke-width="1.5" stroke-linecap="round" stroke-linejoin="round"/>
<path id="Vector_9" d="M25.8058 16.7446C25.8058 16.7446 26.5227 14.228 23.7773 13.9777" stroke="white" stroke-width="1.5" stroke-linecap="round" stroke-linejoin="round"/>
<path id="Vector_10" d="M30.7922 29.5619C30.7922 29.5619 30.3913 27.5958 27.4658 27.0159" stroke="white" stroke-width="1.5" stroke-linecap="round" stroke-linejoin="round"/>
<path id="Vector_11" d="M25.9904 28.5631C25.6642 28.6763 28.5387 27.512 27.2147 25.0181" stroke="white" stroke-width="1.5" stroke-linecap="round" stroke-linejoin="round"/>
<path id="Vector_12" d="M32.5978 22.5366C31.4949 21.6505 30.0934 21.2226 28.6836 21.3417" stroke="white" stroke-width="1.5" stroke-linecap="round" stroke-linejoin="round"/>
<path id="Vector_13" d="M20.0273 22.5366C20.9332 22.5071 21.8271 22.7497 22.5938 23.2331" stroke="white" stroke-width="1.5" stroke-linecap="round" stroke-linejoin="round"/>
</g>
<defs>
<clipPath id="clip0_2_3365">
<rect width="35.0534" height="34.5902" fill="white" transform="translate(0.473145 0.704956)"/>
</clipPath>
</defs>
</svg>
