<svg width="15" height="14" viewBox="0 0 15 14" fill="none" xmlns="http://www.w3.org/2000/svg">
<path id="Vector" d="M7.09964 1.97203L7.5 2.50715L7.90036 1.97203C8.56792 1.07973 9.63741 0.5 10.83 0.5C12.854 0.5 14.5 2.1488 14.5 4.1925C14.5 5.03062 14.3664 5.80375 14.1343 6.52109L14.1332 6.52434C13.5765 8.28605 12.4341 9.71026 11.195 10.7752C9.95375 11.842 8.64415 12.5233 7.80394 12.8091L7.80393 12.8091L7.79859 12.811C7.74125 12.8312 7.633 12.85 7.5 12.85C7.367 12.85 7.25875 12.8312 7.20141 12.811L7.20142 12.811L7.19606 12.8091C6.35584 12.5233 5.04625 11.842 3.80496 10.7752C2.56587 9.71026 1.42346 8.28605 0.866762 6.52434L0.866774 6.52434L0.865722 6.52109C0.633641 5.80375 0.5 5.03062 0.5 4.1925C0.5 2.1488 2.14598 0.5 4.17 0.5C5.3626 0.5 6.43208 1.07973 7.09964 1.97203Z" stroke="white"/>
</svg>
