<svg width="32" height="30" viewBox="0 0 32 30" fill="none" xmlns="http://www.w3.org/2000/svg">
<g id="Isolation_Mode" clip-path="url(#clip0_2_3384)">
<path id="Vector" d="M5.9963 28.9615C5.21085 29.1854 4.38549 29.0705 3.87451 28.6403C3.00925 27.9113 2.19655 26.7755 1.71282 25.0829C1.04903 22.7645 1.87536 18.1161 5.7559 17.0045C8.67579 16.1704 9.8671 18.1861 12.8035 17.3462C15.74 16.5062 17.3226 14.6054 16.7941 12.7658C15.8577 9.49459 10.4676 8.63516 7.99838 4.95999C7.34725 3.98669 7.93901 3.30539 9.38143 2.88784C10.3615 2.60753 11.3485 2.15494 12.0833 2.81873C12.8182 3.48252 13.627 4.24267 14.9312 5.06316C14.9312 5.06316 16.7804 2.00117 19.7149 1.16121C22.6494 0.321258 28.6498 1.46001 30.8105 9.01572C32.9712 16.5714 24.5532 22.4394 19.5203 23.8799C10.9786 26.3229 9.55175 21.3328 7.25672 21.9898C5.47948 22.4978 6.12575 24.5836 7.50296 26.1574C8.30983 27.0792 7.63047 28.4934 6.14035 28.9167L5.9963 28.9615Z" stroke="white" stroke-width="1.5" stroke-linecap="round" stroke-linejoin="round"/>
</g>
<defs>
<clipPath id="clip0_2_3384">
<rect width="30.7796" height="29.27" fill="white" transform="translate(0.943848 0.36499)"/>
</clipPath>
</defs>
</svg>
